<?xml version="1.0" encoding="UTF-8" standalone="no"?>
<svg
   xmlns:dc="http://purl.org/dc/elements/1.1/"
   xmlns:cc="http://creativecommons.org/ns#"
   xmlns:rdf="http://www.w3.org/1999/02/22-rdf-syntax-ns#"
   xmlns:svg="http://www.w3.org/2000/svg"
   xmlns="http://www.w3.org/2000/svg"
   xmlns:sodipodi="http://sodipodi.sourceforge.net/DTD/sodipodi-0.dtd"
   xmlns:inkscape="http://www.inkscape.org/namespaces/inkscape"
   viewBox="0 0 512 512"
   version="1.1"
   id="svg4416"
   sodipodi:docname="react.svg"
   inkscape:version="0.92.2 (5c3e80d, 2017-08-06)">
  <metadata
     id="metadata4422">
    <rdf:RDF>
      <cc:Work
         rdf:about="">
        <dc:format>image/svg+xml</dc:format>
        <dc:type
           rdf:resource="http://purl.org/dc/dcmitype/StillImage" />
      </cc:Work>
    </rdf:RDF>
  </metadata>
  <defs
     id="defs4420" />
  <sodipodi:namedview
     pagecolor="#ffffff"
     bordercolor="#666666"
     borderopacity="1"
     objecttolerance="10"
     gridtolerance="10"
     guidetolerance="10"
     inkscape:pageopacity="0"
     inkscape:pageshadow="2"
     inkscape:window-width="1366"
     inkscape:window-height="705"
     id="namedview4418"
     showgrid="false"
     inkscape:zoom="0.65186406"
     inkscape:cx="-81.774924"
     inkscape:cy="281.16172"
     inkscape:window-x="-8"
     inkscape:window-y="-8"
     inkscape:window-maximized="1"
     inkscape:current-layer="svg4416"
     inkscape:object-nodes="false" />
  <g
     id="g8469"
     style="fill:#0b171b;fill-opacity:1"
     transform="rotate(30.723604,-83.766178,1232.2612)"
     inkscape:transform-center-x="-33.868087"
     inkscape:transform-center-y="-7.1278877">
    <path
       inkscape:connector-curvature="0"
       id="path8453"
       d="m -282.99684,-24.299995 c -2.08288,0.0261 -4.17853,0.191376 -6.2832,0.505859 -16.83737,2.515866 -31.27591,13.484691 -43.30469,29.0019535 -12.02878,15.5172615 -22.08608,36.0019495 -30.3457,60.2851555 -16.51924,48.566417 -25.70378,112.456157 -24.21094,181.314457 1.49284,68.8583 13.33657,129.68765 32.03516,173.46484 9.34929,21.8886 20.36593,39.60386 33.5293,51.95118 13.16336,12.34731 29.46455,19.32297 46.30273,16.81445 l -3.375,-22.65039 c -8.95951,1.33477 -17.53223,-1.7427 -27.25976,-10.86719 -9.72754,-9.12449 -19.61912,-24.30074 -28.13672,-44.24219 -17.03521,-39.88289 -28.7596,-98.47316 -30.20118,-164.96679 -1.44157,-66.49364 7.62776,-128.26253 22.9961,-173.44532 7.68417,-22.591391 16.97912,-41.004206 26.76562,-53.628906 9.78651,-12.6247005 19.62782,-19.04398455 28.58789,-20.3828125 8.96008,-1.338828 17.53262,1.73423595 27.25977,10.853516 9.72715,9.1192795 19.618,24.2912295 28.13672,44.2285155 17.03743,39.874574 28.76705,98.460157 30.21289,164.953127 1.44584,66.49297 -7.62069,128.26492 -22.98633,173.45508 -7.68282,22.59508 -16.97736,41.01276 -26.76367,53.64258 -9.78631,12.62982 -19.6292,19.0536 -28.58985,20.39648 l 3.39454,22.64844 c 16.83655,-2.52321 31.27166,-13.49775 43.29882,-29.01953 12.02717,-15.52179 22.08189,-36.00836 30.33985,-60.29492 16.51592,-48.57313 25.69843,-112.46851 24.20117,-181.32618 -1.49726,-68.85767 -13.34709,-129.683393 -32.04883,-173.453124 -9.35087,-21.884866 -20.36807,-39.5931375 -33.5332,-51.9355465 -11.51949,-10.7996075 -25.44133,-17.4854555 -40.02149,-17.3027345 z"
       style="color:#000000;font-style:normal;font-variant:normal;font-weight:normal;font-stretch:normal;font-size:medium;line-height:normal;font-family:sans-serif;font-variant-ligatures:normal;font-variant-position:normal;font-variant-caps:normal;font-variant-numeric:normal;font-variant-alternates:normal;font-feature-settings:normal;text-indent:0;text-align:start;text-decoration:none;text-decoration-line:none;text-decoration-style:solid;text-decoration-color:#000000;letter-spacing:normal;word-spacing:normal;text-transform:none;writing-mode:lr-tb;direction:ltr;text-orientation:mixed;dominant-baseline:auto;baseline-shift:baseline;text-anchor:start;white-space:normal;shape-padding:0;clip-rule:nonzero;display:inline;overflow:visible;visibility:visible;opacity:1;isolation:auto;mix-blend-mode:normal;color-interpolation:sRGB;color-interpolation-filters:linearRGB;solid-color:#000000;solid-opacity:1;vector-effect:none;fill:#0b171b;fill-opacity:1;fill-rule:evenodd;stroke:none;stroke-width:22.89999962;stroke-linecap:butt;stroke-linejoin:miter;stroke-miterlimit:4;stroke-dasharray:none;stroke-dashoffset:0;stroke-opacity:1;color-rendering:auto;image-rendering:auto;shape-rendering:auto;text-rendering:auto;enable-background:accumulate" />
    <path
       style="color:#000000;font-style:normal;font-variant:normal;font-weight:normal;font-stretch:normal;font-size:medium;line-height:normal;font-family:sans-serif;font-variant-ligatures:normal;font-variant-position:normal;font-variant-caps:normal;font-variant-numeric:normal;font-variant-alternates:normal;font-feature-settings:normal;text-indent:0;text-align:start;text-decoration:none;text-decoration-line:none;text-decoration-style:solid;text-decoration-color:#000000;letter-spacing:normal;word-spacing:normal;text-transform:none;writing-mode:lr-tb;direction:ltr;text-orientation:mixed;dominant-baseline:auto;baseline-shift:baseline;text-anchor:start;white-space:normal;shape-padding:0;clip-rule:nonzero;display:inline;overflow:visible;visibility:visible;opacity:1;isolation:auto;mix-blend-mode:normal;color-interpolation:sRGB;color-interpolation-filters:linearRGB;solid-color:#000000;solid-opacity:1;vector-effect:none;fill:#0b171b;fill-opacity:1;fill-rule:evenodd;stroke:none;stroke-width:22.89999962;stroke-linecap:butt;stroke-linejoin:miter;stroke-miterlimit:4;stroke-dasharray:none;stroke-dashoffset:0;stroke-opacity:1;color-rendering:auto;image-rendering:auto;shape-rendering:auto;text-rendering:auto;enable-background:accumulate"
       d="m -61.445822,101.29332 c -1.08206,-1.779953 -2.29043,-3.500093 -3.63186,-5.152093 -10.7314,-13.21604 -27.51993,-20.066709 -46.998498,-22.528875 -19.47857,-2.462166 -42.23086,-0.700017 -67.33892,4.542175 -50.21613,10.48439 -109.8934,35.078673 -168.41655,71.393063 -58.52315,36.31439 -104.86825,77.4558 -133.04537,115.82414 -14.08857,19.18416 -23.73596,37.68078 -27.66982,55.29484 -3.93387,17.61406 -1.64683,35.19695 9.07866,48.41742 l 17.78362,-14.42822 c -5.70697,-7.03455 -7.41853,-15.98066 -4.51145,-28.99719 2.90707,-13.01654 10.94086,-29.25292 23.77615,-46.73051 25.67057,-34.95519 70.14868,-74.85481 126.66207,-109.92213 56.51341,-35.06731 114.30616,-58.68187 161.02372,-68.43582 23.35878,-4.876973 43.9395,-6.241463 59.78708,-4.238273 15.847588,2.0032 26.380588,7.210363 32.091338,14.243333 5.71076,7.03297 7.42602,15.97669 4.52324,28.99024 -2.90279,13.01355 -10.93325,29.24712 -23.764388,46.72356 -25.66227,34.95287 -70.13368,74.8546 -126.64434,109.92525 -56.51067,35.07065 -114.30462,58.68918 -161.02715,68.4492 -23.36127,4.88001 -43.94597,6.24733 -59.79787,4.24691 -15.85189,-2.00043 -26.38956,-7.20666 -32.1041,-14.23806 l -17.77201,14.44405 c 10.73731,13.21159 27.52902,20.0564 47.01065,22.51487 19.48165,2.45848 42.23425,0.69315 67.34436,-4.55218 50.22022,-10.49066 109.90131,-35.08956 168.42166,-71.40743 58.52036,-36.31788 104.85923,-77.46269 133.028338,-115.82995 14.08455,-19.18362 23.72563,-37.67716 27.65437,-55.29025 3.43765,-15.41145 2.11151,-30.79844 -5.46293,-43.25807 z"
       id="path8459"
       inkscape:connector-curvature="0" />
    <path
       inkscape:connector-curvature="0"
       id="path8461"
       d="m -62.512142,358.14491 c 0.98217,-1.81904 1.85122,-3.71706 2.59675,-5.69574 5.96433,-15.82941 3.5279,-33.70399 -3.96852,-51.70867 -7.49641,-18.00467 -20.20052,-36.724 -37.026778,-55.73823 -33.65251,-38.02846 -83.97386,-77.17471 -143.70253,-109.48633 -59.72869,-32.31162 -117.5689,-51.728313 -164.10208,-56.878103 -23.26658,-2.574914 -43.76094,-1.667077 -60.69049,3.72224 -16.92956,5.38931 -30.76914,16.12142 -36.74014,31.947953 l 21.03814,8.12767 c 3.17715,-8.42122 9.94885,-14.35362 22.45955,-18.33624 12.5107,-3.98263 30.28663,-5.153963 51.48347,-2.80811 42.39372,4.69169 98.25759,23.1191 155.93511,54.32108 57.67753,31.20202 106.23697,69.21329 137.54492,104.59229 15.65397,17.6895 26.950218,34.73654 33.049248,49.38497 6.09901,14.64844 6.85381,26.31586 3.67987,34.73954 -3.17394,8.42369 -9.94179,14.35809 -22.447828,18.34293 -12.50604,3.98482 -30.27794,5.15763 -51.47177,2.81477 -42.38765,-4.68569 -98.25002,-23.10628 -155.92903,-54.30426 -57.67902,-31.19799 -106.24244,-69.20831 -137.558,-104.58857 -15.65778,-17.69013 -26.95841,-34.73919 -33.06191,-49.38996 -6.10349,-14.65076 -6.86138,-26.32175 -3.69064,-34.7479 l -21.0459,-8.10977 c -5.95762,15.83228 -3.51465,33.70668 3.98642,51.71215 7.50107,18.00548 20.20804,36.7235 37.03797,55.73792 33.65987,38.02886 83.98704,77.17611 143.7173,109.48359 59.73027,32.30747 117.57032,51.71711 164.09862,56.86054 23.26416,2.57171 43.75277,1.65997 60.678978,-3.73327 14.81044,-4.71909 27.25414,-13.52924 34.12927,-26.26249 z"
       style="color:#000000;font-style:normal;font-variant:normal;font-weight:normal;font-stretch:normal;font-size:medium;line-height:normal;font-family:sans-serif;font-variant-ligatures:normal;font-variant-position:normal;font-variant-caps:normal;font-variant-numeric:normal;font-variant-alternates:normal;font-feature-settings:normal;text-indent:0;text-align:start;text-decoration:none;text-decoration-line:none;text-decoration-style:solid;text-decoration-color:#000000;letter-spacing:normal;word-spacing:normal;text-transform:none;writing-mode:lr-tb;direction:ltr;text-orientation:mixed;dominant-baseline:auto;baseline-shift:baseline;text-anchor:start;white-space:normal;shape-padding:0;clip-rule:nonzero;display:inline;overflow:visible;visibility:visible;opacity:1;isolation:auto;mix-blend-mode:normal;color-interpolation:sRGB;color-interpolation-filters:linearRGB;solid-color:#000000;solid-opacity:1;vector-effect:none;fill:#0b171b;fill-opacity:1;fill-rule:evenodd;stroke:none;stroke-width:22.65294647;stroke-linecap:butt;stroke-linejoin:miter;stroke-miterlimit:4;stroke-dasharray:none;stroke-dashoffset:0;stroke-opacity:1;color-rendering:auto;image-rendering:auto;shape-rendering:auto;text-rendering:auto;enable-background:accumulate" />
    <path
       d="m -279.48412,281.81171 a 49.089989,49.089989 0 0 1 -51.79409,-46.22359 49.089989,49.089989 0 0 1 46.21922,-51.79798 49.089989,49.089989 0 0 1 51.80188,46.21486 49.089989,49.089989 0 0 1 -46.2105,51.80577"
       sodipodi:open="true"
       sodipodi:end="1.513731"
       sodipodi:start="1.5140679"
       sodipodi:ry="49.089989"
       sodipodi:rx="49.089989"
       sodipodi:cy="232.80069"
       sodipodi:cx="-282.26743"
       sodipodi:type="arc"
       id="path8463"
       style="fill:#0b171b;fill-opacity:1;fill-rule:evenodd;stroke-width:1.06666672" />
  </g>
</svg>
