<?xml version="1.0" encoding="UTF-8" standalone="no"?>
<svg
   xmlns:dc="http://purl.org/dc/elements/1.1/"
   xmlns:cc="http://creativecommons.org/ns#"
   xmlns:rdf="http://www.w3.org/1999/02/22-rdf-syntax-ns#"
   xmlns:svg="http://www.w3.org/2000/svg"
   xmlns="http://www.w3.org/2000/svg"
   xmlns:sodipodi="http://sodipodi.sourceforge.net/DTD/sodipodi-0.dtd"
   xmlns:inkscape="http://www.inkscape.org/namespaces/inkscape"
   viewBox="0 0 384 512"
   version="1.1"
   id="svg5005"
   sodipodi:docname="css3-alt.svg"
   inkscape:version="0.92.2 (5c3e80d, 2017-08-06)">
  <metadata
     id="metadata5011">
    <rdf:RDF>
      <cc:Work
         rdf:about="">
        <dc:format>image/svg+xml</dc:format>
        <dc:type
           rdf:resource="http://purl.org/dc/dcmitype/StillImage" />
      </cc:Work>
    </rdf:RDF>
  </metadata>
  <defs
     id="defs5009" />
  <sodipodi:namedview
     pagecolor="#ffffff"
     bordercolor="#666666"
     borderopacity="1"
     objecttolerance="10"
     gridtolerance="10"
     guidetolerance="10"
     inkscape:pageopacity="0"
     inkscape:pageshadow="2"
     inkscape:window-width="1366"
     inkscape:window-height="705"
     id="namedview5007"
     showgrid="false"
     inkscape:zoom="0.4609375"
     inkscape:cx="-73.073953"
     inkscape:cy="256"
     inkscape:window-x="-8"
     inkscape:window-y="-8"
     inkscape:window-maximized="1"
     inkscape:current-layer="svg5005" />
  <path
     d="M0 32l34.9 395.8L192 480l157.1-52.2L384 32H0zm313.1 80l-4.8 47.3L193 208.6l-.3.1h111.5l-12.8 146.6-98.2 28.7-98.8-29.2-6.4-73.9h48.9l3.2 38.3 52.6 13.3 54.7-15.4 3.7-61.6-166.3-.5v-.1l-.2.1-3.6-46.3L193.1 162l6.5-2.7H76.7L70.9 112h242.2z"
     id="path5003"
     style="fill:#0b1728;fill-opacity:1" />
  <path
     inkscape:connector-curvature="0"
     d="m -215.29153,90.39587 c -5.4,-1.8 -10.8,-3.5 -16.2,-5.1 0.9,-3.7 1.7,-7.4 2.5,-11.1 12.3,-59.599998 4.2,-107.499998 -23.1,-123.299998 -26.3,-15.1 -69.2,0.6 -112.6,38.4 -4.3,3.7000004 -8.5,7.6000004 -12.5,11.50000037 -2.7,-2.59999997 -5.5,-5.19999997 -8.3,-7.69999997 -45.5,-40.4000004 -91.1,-57.4000004 -118.4,-41.5000004 -26.2,15.2 -34,60.3 -23,116.699998 1.1,5.6 2.3,11.1 3.7,16.7 -6.4,1.8 -12.7,3.8 -18.6,5.9 -53.4,18.5 -91.7,47.7 -91.7,77.9 0,31.2 40.8,62.5 96.3,81.5 4.5,1.5 9,3 13.6,4.3 -1.5,6 -2.8,11.9 -4,18 -10.5,55.5 -2.3,99.5 23.9,114.6 27,15.6 72.4,-0.4 116.6,-39.1 3.5,-3.1 7,-6.3 10.5,-9.7 4.4,4.3 9,8.4 13.6,12.4 42.8,36.8 85.1,51.7 111.2,36.6 27,-15.6 35.8,-62.9 24.4,-120.5 -0.9,-4.4 -1.9,-8.9 -3,-13.5 3.2,-0.9 6.3,-1.9 9.4,-2.9 57.7,-19.1 99.5,-50 99.5,-81.7 0,-30.3 -39.4,-59.7 -93.8,-78.4 z m -135.3,-84.8999976 c 37.2,-32.4000004 71.9,-45.1000004 87.7,-36.0000004 16.9,9.7 23.4,48.900003 12.8,100.399998 -0.7,3.4 -1.4,6.7 -2.3,10 -22.2,-5 -44.7,-8.6 -67.3,-10.6 -13,-18.6 -27.2,-36.399995 -42.6,-53.099998 3.9,-3.7 7.7,-7.1999996 11.7,-10.6999996 z m -130,189.0999976 c 4.6,8.8 9.3,17.5 14.3,26.1 5.1,8.7 10.3,17.4 15.8,25.9 -15.6,-1.7 -31.1,-4.2 -46.4,-7.5 4.4,-14.4 9.9,-29.3 16.3,-44.5 z m 0,-50.6 c -6.3,-14.9 -11.6,-29.5 -16,-43.6 14.4,-3.2 29.7,-5.8 45.6,-7.8 -5.3,8.3 -10.5,16.8 -15.4,25.4 -4.9,8.5 -9.7,17.2 -14.2,26 z m 11.4,25.3 c 6.6,-13.8 13.8,-27.3 21.4,-40.6 7.6,-13.3 15.8,-26.2 24.4,-38.9 15,-1.1 30.3,-1.7 45.9,-1.7 15.6,0 31,0.6 45.9,1.7 8.5,12.6 16.6,25.5 24.3,38.7 7.7,13.2 14.9,26.7 21.7,40.4 -6.7,13.8 -13.9,27.4 -21.6,40.8 -7.6,13.3 -15.7,26.2 -24.2,39 -14.9,1.1 -30.4,1.6 -46.1,1.6 -15.7,0 -30.9,-0.5 -45.6,-1.4 -8.7,-12.7 -16.9,-25.7 -24.6,-39 -7.7,-13.3 -14.8,-26.8 -21.5,-40.6 z m 180.6,51.2 c 5.1,-8.8 9.9,-17.7 14.6,-26.7 6.4,14.5 12,29.2 16.9,44.3 -15.5,3.5 -31.2,6.2 -47,8 5.4,-8.4 10.5,-17 15.5,-25.6 z m 14.4,-76.5 c -4.7,-8.8 -9.5,-17.6 -14.5,-26.2 -4.9,-8.5 -10,-16.9 -15.3,-25.2 16.1,2 31.5,4.7 45.9,8 -4.6,14.8 -10,29.2 -16.1,43.4 z m -103.1,-112.499995 c 10.5,11.4 20.4,23.399995 29.6,35.799995 -19.8,-0.9 -39.7,-0.9 -59.5,0 9.8,-12.9 19.9,-24.899995 29.9,-35.799995 z m -116,-61.300003 c 16.8,-9.8 54.1,4.2 93.4,39.0000004 2.5,2.1999996 5,4.5999996 7.6,6.9999996 -15.5,16.700003 -29.8,34.499998 -42.9,53.099998 -22.6,2 -45,5.5 -67.2,10.4 -1.3,-5.1 -2.4,-10.3 -3.5,-15.5 -9.4,-48.399998 -3.2,-84.899998 12.6,-93.999998 z m -24.5,263.599998 c -4.2,-1.2 -8.3,-2.5 -12.4,-3.9 -21.3,-6.7 -45.5,-17.3 -63,-31.2 -10.1,-7 -16.9,-17.8 -18.8,-29.9 0,-18.3 31.6,-41.7 77.2,-57.6 5.7,-2 11.5,-3.8 17.3,-5.5 6.8,21.7 15,43 24.5,63.6 -9.6,20.9 -17.9,42.5 -24.8,64.5 z m 116.6,98 c -16.5,15.1 -35.6,27.1 -56.4,35.3 -11.1,5.3 -23.9,5.8 -35.3,1.3 -15.9,-9.2 -22.5,-44.5 -13.5,-92 1.1,-5.6 2.3,-11.2 3.7,-16.7 22.4,4.8 45,8.1 67.9,9.8 13.2,18.7 27.7,36.6 43.2,53.4 -3.2,3.1 -6.4,6.1 -9.6,8.9 z m 24.5,-24.3 c -10.2,-11 -20.4,-23.2 -30.3,-36.3 9.6,0.4 19.5,0.6 29.5,0.6 10.3,0 20.4,-0.2 30.4,-0.7 -9.2,12.7 -19.1,24.8 -29.6,36.4 z m 130.7,30 c -0.9,12.2 -6.9,23.6 -16.5,31.3 -15.9,9.2 -49.8,-2.8 -86.4,-34.2 -4.2,-3.6 -8.4,-7.5 -12.7,-11.5 15.3,-16.9 29.4,-34.8 42.2,-53.6 22.9,-1.9 45.7,-5.4 68.2,-10.5 1,4.1 1.9,8.2 2.7,12.2 4.9,21.6 5.7,44.1 2.5,66.3 z m 18.2,-107.5 c -2.8,0.9 -5.6,1.8 -8.5,2.6 -7,-21.8 -15.6,-43.1 -25.5,-63.8 9.6,-20.4 17.7,-41.4 24.5,-62.9 5.2,1.5 10.2,3.1 15,4.7 46.6,16 79.3,39.8 79.3,58 0,19.6 -34.9,44.9 -84.8,61.4 z m -149.7,-106.6 c 25.3,0 45.8,20.5 45.8,45.8 0,25.3 -20.5,45.8 -45.8,45.8 -25.3,0 -45.8,-20.5 -45.8,-45.8 0,-25.3 20.5,-45.8 45.8,-45.8"
     id="path4414"
     style="fill:#c32337;fill-opacity:1" />
  <path
     inkscape:connector-curvature="0"
     d="m 849.92882,90.395875 c -5.4,-1.8 -10.8,-3.5 -16.2,-5.1 0.9,-3.7 1.7,-7.4 2.5,-11.1 12.3,-59.599999 4.2,-107.499999 -23.1,-123.299999 -26.3,-15.1 -69.2,0.6 -112.6,38.4 -4.3,3.7000001 -8.5,7.6000001 -12.5,11.50000008 -2.7,-2.59999998 -5.5,-5.19999998 -8.3,-7.69999998 -45.5,-40.4000001 -91.1,-57.4000001 -118.4,-41.5000001 -26.2,15.2 -34,60.3 -23,116.699999 1.1,5.6 2.3,11.1 3.7,16.7 -6.4,1.8 -12.7,3.8 -18.6,5.9 -53.4,18.500005 -91.7,47.700005 -91.7,77.900005 0,31.2 40.8,62.5 96.3,81.5 4.5,1.5 9,3 13.6,4.3 -1.5,6 -2.8,11.9 -4,18 -10.5,55.5 -2.3,99.5 23.9,114.6 27,15.6 72.4,-0.4 116.6,-39.1 3.5,-3.1 7,-6.3 10.5,-9.7 4.4,4.3 9,8.4 13.6,12.4 42.8,36.8 85.1,51.7 111.2,36.6 27,-15.6 35.8,-62.9 24.4,-120.5 -0.9,-4.4 -1.9,-8.9 -3,-13.5 3.2,-0.9 6.3,-1.9 9.4,-2.9 57.7,-19.1 99.5,-50 99.5,-81.7 0,-30.3 -39.4,-59.7 -93.8,-78.400005 z m -135.3,-84.8999989 c 37.2,-32.4000001 71.9,-45.1000001 87.7,-36.0000001 16.9,9.7 23.4,48.9 12.8,100.399999 -0.7,3.4 -1.4,6.7 -2.3,10 -22.2,-5 -44.7,-8.6 -67.3,-10.6 -13,-18.6 -27.2,-36.4 -42.6,-53.099999 3.9,-3.7 7.7,-7.1999999 11.7,-10.6999999 z m -130,189.1000039 c 4.6,8.8 9.3,17.5 14.3,26.1 5.1,8.7 10.3,17.4 15.8,25.9 -15.6,-1.7 -31.1,-4.2 -46.4,-7.5 4.4,-14.4 9.9,-29.3 16.3,-44.5 z m 0,-50.6 c -6.3,-14.9 -11.6,-29.5 -16,-43.6 14.4,-3.200005 29.7,-5.800005 45.6,-7.800005 -5.3,8.300005 -10.5,16.800005 -15.4,25.400005 -4.9,8.5 -9.7,17.2 -14.2,26 z m 11.4,25.3 c 6.6,-13.8 13.8,-27.3 21.4,-40.6 7.6,-13.3 15.8,-26.2 24.4,-38.900005 15,-1.1 30.3,-1.7 45.9,-1.7 15.6,0 31,0.6 45.9,1.7 8.5,12.600005 16.6,25.500005 24.3,38.700005 7.7,13.2 14.9,26.7 21.7,40.4 -6.7,13.8 -13.9,27.4 -21.6,40.8 -7.6,13.3 -15.7,26.2 -24.2,39 -14.9,1.1 -30.4,1.6 -46.1,1.6 -15.7,0 -30.9,-0.5 -45.6,-1.4 -8.7,-12.7 -16.9,-25.7 -24.6,-39 -7.7,-13.3 -14.8,-26.8 -21.5,-40.6 z m 180.6,51.2 c 5.1,-8.8 9.9,-17.7 14.6,-26.7 6.4,14.5 12,29.2 16.9,44.3 -15.5,3.5 -31.2,6.2 -47,8 5.4,-8.4 10.5,-17 15.5,-25.6 z m 14.4,-76.5 c -4.7,-8.8 -9.5,-17.6 -14.5,-26.2 -4.9,-8.5 -10,-16.9 -15.3,-25.200005 16.1,2 31.5,4.7 45.9,8.000005 -4.6,14.8 -10,29.2 -16.1,43.4 z m -103.1,-112.500005 c 10.5,11.4 20.4,23.4 29.6,35.8 -19.8,-0.9 -39.7,-0.9 -59.5,0 9.8,-12.9 19.9,-24.9 29.9,-35.8 z m -116,-61.299999 c 16.8,-9.8 54.1,4.2 93.4,39.0000001 2.5,2.1999999 5,4.5999999 7.6,6.9999999 -15.5,16.699999 -29.8,34.499999 -42.9,53.099999 -22.6,2 -45,5.5 -67.2,10.4 -1.3,-5.1 -2.4,-10.3 -3.5,-15.5 -9.4,-48.399999 -3.2,-84.899999 12.6,-93.999999 z m -24.5,263.600004 c -4.2,-1.2 -8.3,-2.5 -12.4,-3.9 -21.3,-6.7 -45.5,-17.3 -63,-31.2 -10.1,-7 -16.9,-17.8 -18.8,-29.9 0,-18.3 31.6,-41.7 77.2,-57.6 5.7,-2 11.5,-3.8 17.3,-5.5 6.8,21.7 15,43 24.5,63.6 -9.6,20.9 -17.9,42.5 -24.8,64.5 z m 116.6,98 c -16.5,15.1 -35.6,27.1 -56.4,35.3 -11.1,5.3 -23.9,5.8 -35.3,1.3 -15.9,-9.2 -22.5,-44.5 -13.5,-92 1.1,-5.6 2.3,-11.2 3.7,-16.7 22.4,4.8 45,8.1 67.9,9.8 13.2,18.7 27.7,36.6 43.2,53.4 -3.2,3.1 -6.4,6.1 -9.6,8.9 z m 24.5,-24.3 c -10.2,-11 -20.4,-23.2 -30.3,-36.3 9.6,0.4 19.5,0.6 29.5,0.6 10.3,0 20.4,-0.2 30.4,-0.7 -9.2,12.7 -19.1,24.8 -29.6,36.4 z m 130.7,30 c -0.9,12.2 -6.9,23.6 -16.5,31.3 -15.9,9.2 -49.8,-2.8 -86.4,-34.2 -4.2,-3.6 -8.4,-7.5 -12.7,-11.5 15.3,-16.9 29.4,-34.8 42.2,-53.6 22.9,-1.9 45.7,-5.4 68.2,-10.5 1,4.1 1.9,8.2 2.7,12.2 4.9,21.6 5.7,44.1 2.5,66.3 z m 18.2,-107.5 c -2.8,0.9 -5.6,1.8 -8.5,2.6 -7,-21.8 -15.6,-43.1 -25.5,-63.8 9.6,-20.4 17.7,-41.4 24.5,-62.9 5.2,1.5 10.2,3.1 15,4.7 46.6,16 79.3,39.8 79.3,58 0,19.6 -34.9,44.9 -84.8,61.4 z m -149.7,-106.6 c 25.3,0 45.8,20.5 45.8,45.8 0,25.3 -20.5,45.8 -45.8,45.8 -25.3,0 -45.8,-20.5 -45.8,-45.8 0,-25.3 20.5,-45.8 45.8,-45.8"
     id="path4414-3"
     style="fill:#0b1728;fill-opacity:1" />
</svg>
