<?xml version="1.0" encoding="UTF-8" standalone="no"?>
<svg
   xmlns:dc="http://purl.org/dc/elements/1.1/"
   xmlns:cc="http://creativecommons.org/ns#"
   xmlns:rdf="http://www.w3.org/1999/02/22-rdf-syntax-ns#"
   xmlns:svg="http://www.w3.org/2000/svg"
   xmlns="http://www.w3.org/2000/svg"
   xmlns:sodipodi="http://sodipodi.sourceforge.net/DTD/sodipodi-0.dtd"
   xmlns:inkscape="http://www.inkscape.org/namespaces/inkscape"
   viewBox="0 0 448 512"
   version="1.1"
   id="svg5574"
   sodipodi:docname="js-square.svg"
   inkscape:version="0.92.2 (5c3e80d, 2017-08-06)">
  <metadata
     id="metadata5580">
    <rdf:RDF>
      <cc:Work
         rdf:about="">
        <dc:format>image/svg+xml</dc:format>
        <dc:type
           rdf:resource="http://purl.org/dc/dcmitype/StillImage" />
      </cc:Work>
    </rdf:RDF>
  </metadata>
  <defs
     id="defs5578" />
  <sodipodi:namedview
     pagecolor="#ffffff"
     bordercolor="#666666"
     borderopacity="1"
     objecttolerance="10"
     gridtolerance="10"
     guidetolerance="10"
     inkscape:pageopacity="0"
     inkscape:pageshadow="2"
     inkscape:window-width="1366"
     inkscape:window-height="705"
     id="namedview5576"
     showgrid="false"
     inkscape:zoom="0.65186406"
     inkscape:cx="26.059262"
     inkscape:cy="239.96041"
     inkscape:window-x="-8"
     inkscape:window-y="-8"
     inkscape:window-maximized="1"
     inkscape:current-layer="svg5574"
     inkscape:measure-start="0,0"
     inkscape:measure-end="0,0" />
  <g
     id="g7887"
     transform="translate(651.97641,-4.6021865)">
    <rect
       ry="62.896549"
       y="42.738434"
       x="-650.70557"
       height="448"
       width="448"
       id="rect7861"
       style="opacity:1;fill:#0b1728;fill-opacity:1;stroke:none;stroke-width:5.69026232;stroke-linecap:round;stroke-linejoin:round;stroke-miterlimit:4;stroke-dasharray:none;stroke-dashoffset:2.29999995;stroke-opacity:1;paint-order:normal" />
    <path
       sodipodi:nodetypes="ssccssccssccssccscsscccsscc"
       inkscape:connector-curvature="0"
       id="rect7882"
       d="m -325.20568,234.74319 c -37.5,0 -61.32842,23.99961 -61.32842,55.59961 0,34.3 20.1,50.6 50.5,63.5 l 10.5,4.5 c 19.3,8.5 30.69922,13.6 30.69922,28 0,12.1 -11.19961,20.79883 -28.59961,20.79883 -20.7,0 -32.5,-10.89961 -41.5,-25.59961 l -34.30078,19.80078 c 12.3,24.4 37.60117,43 76.70117,43 39.9,0 69.69922,-20.79961 69.69922,-58.59961 0,-35.2 -20.10039,-50.90117 -55.90039,-66.20117 l -10.5,-4.5 c -18.1,-7.9 -25.90039,-13.2708 -25.90039,-25.8708 0,-10.2 7.80156,-18 20.10156,-18 12.1,0 19.89961,5.1 27.09961,18 l 32.52764,-20.72881 c -13.8,-24.4 -32.99883,-33.69922 -59.79883,-33.69922 z m -139.02959,2.39844 v 143.10156 c 0,21.1 -8.79961,26.5 -22.59961,26.5 -14.5,0 -20.11609,-9.51804 -26.71609,-21.21804 l -17.15039,10.35058 -17.15039,10.35059 c 10,21.1 29.11765,38.11648 62.81765,38.11648 37.3,0 62.89844,-19.9 62.89844,-63.5 V 237.14163 Z"
       style="opacity:1;fill:#ffffff;fill-opacity:1;stroke:none;stroke-width:2.64245129;stroke-linecap:round;stroke-linejoin:round;stroke-miterlimit:4;stroke-dasharray:none;stroke-dashoffset:2.29999995;stroke-opacity:1;paint-order:normal" />
  </g>
</svg>
