<?xml version="1.0" encoding="UTF-8" standalone="no"?>
<svg
   xmlns:dc="http://purl.org/dc/elements/1.1/"
   xmlns:cc="http://creativecommons.org/ns#"
   xmlns:rdf="http://www.w3.org/1999/02/22-rdf-syntax-ns#"
   xmlns:svg="http://www.w3.org/2000/svg"
   xmlns="http://www.w3.org/2000/svg"
   xmlns:sodipodi="http://sodipodi.sourceforge.net/DTD/sodipodi-0.dtd"
   xmlns:inkscape="http://www.inkscape.org/namespaces/inkscape"
   viewBox="0 0 320 512"
   version="1.1"
   id="svg10962"
   sodipodi:docname="mobile-alt.svg"
   inkscape:version="0.92.2 (5c3e80d, 2017-08-06)">
  <metadata
     id="metadata10968">
    <rdf:RDF>
      <cc:Work
         rdf:about="">
        <dc:format>image/svg+xml</dc:format>
        <dc:type
           rdf:resource="http://purl.org/dc/dcmitype/StillImage" />
      </cc:Work>
    </rdf:RDF>
  </metadata>
  <defs
     id="defs10966" />
  <sodipodi:namedview
     pagecolor="#ffffff"
     bordercolor="#666666"
     borderopacity="1"
     objecttolerance="10"
     gridtolerance="10"
     guidetolerance="10"
     inkscape:pageopacity="0"
     inkscape:pageshadow="2"
     inkscape:window-width="1366"
     inkscape:window-height="705"
     id="namedview10964"
     showgrid="false"
     inkscape:zoom="0.4609375"
     inkscape:cx="-192.54237"
     inkscape:cy="256"
     inkscape:window-x="-8"
     inkscape:window-y="-8"
     inkscape:window-maximized="1"
     inkscape:current-layer="svg10962" />
  <path
     d="M272 0H48C21.5 0 0 21.5 0 48v416c0 26.5 21.5 48 48 48h224c26.5 0 48-21.5 48-48V48c0-26.5-21.5-48-48-48zM160 480c-17.7 0-32-14.3-32-32s14.3-32 32-32 32 14.3 32 32-14.3 32-32 32zm112-108c0 6.6-5.4 12-12 12H60c-6.6 0-12-5.4-12-12V60c0-6.6 5.4-12 12-12h200c6.6 0 12 5.4 12 12v312z"
     id="path10960"
     style="fill:#0b1728;fill-opacity:1" />
  <path
     inkscape:connector-curvature="0"
     d="m 1147.1492,198.87045 c -5.4,-1.8 -10.8,-3.5 -16.2,-5.1 0.9,-3.7 1.7,-7.4 2.5,-11.1 12.3,-59.6 4.2,-107.499998 -23.1,-123.299998 -26.3,-15.1 -69.2,0.6 -112.60005,38.4 -4.3,3.699998 -8.5,7.599998 -12.5,11.499998 -2.7,-2.6 -5.5,-5.2 -8.3,-7.7 -45.5,-40.399998 -91.1,-57.399998 -118.4,-41.499998 -26.2,15.2 -34,60.299998 -23,116.699998 1.1,5.6 2.3,11.1 3.7,16.7 -6.4,1.8 -12.7,3.8 -18.6,5.9 -53.4,18.5 -91.7,47.7 -91.7,77.9 0,31.2 40.8,62.5 96.3,81.5 4.5,1.5 9,3 13.6,4.3 -1.5,6 -2.8,11.9 -4,18 -10.5,55.5 -2.3,99.5 23.9,114.6 27,15.6 72.4,-0.4 116.6,-39.1 3.5,-3.1 7,-6.3 10.5,-9.7 4.4,4.3 9,8.4 13.6,12.4 42.80005,36.8 85.10005,51.7 111.20005,36.6 27,-15.6 35.8,-62.9 24.4,-120.5 -0.9,-4.4 -1.9,-8.9 -3,-13.5 3.2,-0.9 6.3,-1.9 9.4,-2.9 57.7,-19.1 99.5,-50 99.5,-81.7 0,-30.3 -39.4,-59.7 -93.8,-78.4 z m -135.3,-84.9 c 37.2,-32.399998 71.9,-45.099998 87.7,-35.999998 16.9,9.7 23.4,48.899998 12.8,100.399998 -0.7,3.4 -1.4,6.7 -2.3,10 -22.2,-5 -44.7,-8.6 -67.3,-10.6 -13,-18.6 -27.2,-36.4 -42.6,-53.1 3.9,-3.7 7.7,-7.2 11.7,-10.7 z m -130.00005,189.1 c 4.6,8.8 9.3,17.5 14.3,26.1 5.1,8.7 10.3,17.4 15.8,25.9 -15.6,-1.7 -31.1,-4.2 -46.4,-7.5 4.4,-14.4 9.9,-29.3 16.3,-44.5 z m 0,-50.6 c -6.3,-14.9 -11.6,-29.5 -16,-43.6 14.4,-3.2 29.7,-5.8 45.6,-7.8 -5.3,8.3 -10.5,16.8 -15.4,25.4 -4.9,8.5 -9.7,17.2 -14.2,26 z m 11.4,25.3 c 6.6,-13.8 13.8,-27.3 21.4,-40.6 7.6,-13.3 15.8,-26.2 24.4,-38.9 15,-1.1 30.3,-1.7 45.9,-1.7 15.60005,0 31.00005,0.6 45.90005,1.7 8.5,12.6 16.6,25.5 24.3,38.7 7.7,13.2 14.9,26.7 21.7,40.4 -6.7,13.8 -13.9,27.4 -21.6,40.8 -7.6,13.3 -15.7,26.2 -24.2,39 -14.9,1.1 -30.4,1.6 -46.10005,1.6 -15.7,0 -30.9,-0.5 -45.6,-1.4 -8.7,-12.7 -16.9,-25.7 -24.6,-39 -7.7,-13.3 -14.8,-26.8 -21.5,-40.6 z m 180.60005,51.2 c 5.1,-8.8 9.9,-17.7 14.6,-26.7 6.4,14.5 12,29.2 16.9,44.3 -15.5,3.5 -31.2,6.2 -47,8 5.4,-8.4 10.5,-17 15.5,-25.6 z m 14.4,-76.5 c -4.7,-8.8 -9.5,-17.6 -14.5,-26.2 -4.9,-8.5 -10,-16.9 -15.3,-25.2 16.1,2 31.5,4.7 45.9,8 -4.6,14.8 -10,29.2 -16.1,43.4 z m -103.10005,-112.5 c 10.5,11.4 20.40005,23.4 29.60005,35.8 -19.80005,-0.9 -39.70005,-0.9 -59.50005,0 9.8,-12.9 19.9,-24.9 29.9,-35.8 z m -116,-61.299998 c 16.8,-9.8 54.1,4.2 93.4,38.999998 2.5,2.2 5,4.6 7.6,7 -15.5,16.7 -29.8,34.5 -42.9,53.1 -22.6,2 -45,5.5 -67.2,10.4 -1.3,-5.1 -2.4,-10.3 -3.5,-15.5 -9.4,-48.4 -3.2,-84.899998 12.6,-93.999998 z m -24.5,263.599998 c -4.2,-1.2 -8.3,-2.5 -12.4,-3.9 -21.3,-6.7 -45.5,-17.3 -63,-31.2 -10.1,-7 -16.9,-17.8 -18.8,-29.9 0,-18.3 31.6,-41.7 77.2,-57.6 5.7,-2 11.5,-3.8 17.3,-5.5 6.8,21.7 15,43 24.5,63.6 -9.6,20.9 -17.9,42.5 -24.8,64.5 z m 116.6,98 c -16.5,15.1 -35.6,27.1 -56.4,35.3 -11.1,5.3 -23.9,5.8 -35.3,1.3 -15.9,-9.2 -22.5,-44.5 -13.5,-92 1.1,-5.6 2.3,-11.2 3.7,-16.7 22.4,4.8 45,8.1 67.9,9.8 13.2,18.7 27.7,36.6 43.2,53.4 -3.2,3.1 -6.4,6.1 -9.6,8.9 z m 24.5,-24.3 c -10.2,-11 -20.4,-23.2 -30.3,-36.3 9.6,0.4 19.5,0.6 29.5,0.6 10.3,0 20.40005,-0.2 30.40005,-0.7 -9.2,12.7 -19.10005,24.8 -29.60005,36.4 z m 130.70005,30 c -0.9,12.2 -6.9,23.6 -16.5,31.3 -15.9,9.2 -49.8,-2.8 -86.4,-34.2 -4.2,-3.6 -8.4,-7.5 -12.7,-11.5 15.3,-16.9 29.4,-34.8 42.2,-53.6 22.9,-1.9 45.7,-5.4 68.2,-10.5 1,4.1 1.9,8.2 2.7,12.2 4.9,21.6 5.7,44.1 2.5,66.3 z m 18.2,-107.5 c -2.8,0.9 -5.6,1.8 -8.5,2.6 -7,-21.8 -15.6,-43.1 -25.5,-63.8 9.6,-20.4 17.7,-41.4 24.5,-62.9 5.2,1.5 10.2,3.1 15,4.7 46.6,16 79.3,39.8 79.3,58 0,19.6 -34.9,44.9 -84.8,61.4 z m -149.70005,-106.6 c 25.30005,0 45.80005,20.5 45.80005,45.8 0,25.3 -20.5,45.8 -45.80005,45.8 -25.3,0 -45.8,-20.5 -45.8,-45.8 0,-25.3 20.5,-45.8 45.8,-45.8"
     id="path4414"
     style="fill:#c32337;fill-opacity:1" />
  <path
     inkscape:connector-curvature="0"
     d="m -421.39322,155.48062 c -5.4,-1.8 -10.8,-3.5 -16.2,-5.1 0.9,-3.7 1.7,-7.4 2.5,-11.1 12.3,-59.599998 4.2,-107.499998 -23.1,-123.299998 -26.3,-15.10000031 -69.2,0.6 -112.6,38.399997 -4.3,3.7 -8.5,7.6 -12.5,11.5 -2.7,-2.6 -5.5,-5.2 -8.3,-7.7 -45.5,-40.399997 -91.1,-57.39999731 -118.4,-41.499997 -26.2,15.2 -34,60.3 -23,116.699998 1.1,5.6 2.3,11.1 3.7,16.7 -6.4,1.8 -12.7,3.8 -18.6,5.9 -53.4,18.5 -91.7,47.7 -91.7,77.9 0,31.2 40.8,62.5 96.3,81.5 4.5,1.5 9,3 13.6,4.3 -1.5,6 -2.8,11.9 -4,18 -10.5,55.5 -2.3,99.5 23.9,114.6 27,15.6 72.4,-0.4 116.6,-39.1 3.5,-3.1 7,-6.3 10.5,-9.7 4.4,4.3 9,8.4 13.6,12.4 42.8,36.8 85.1,51.7 111.2,36.6 27,-15.6 35.8,-62.9 24.4,-120.5 -0.9,-4.4 -1.9,-8.9 -3,-13.5 3.2,-0.9 6.3,-1.9 9.4,-2.9 57.7,-19.1 99.5,-50 99.5,-81.7 0,-30.3 -39.4,-59.7 -93.8,-78.4 z m -135.3,-84.900001 c 37.2,-32.399997 71.9,-45.099997 87.7,-35.999997 16.9,9.699997 23.4,48.9 12.8,100.399998 -0.7,3.4 -1.4,6.7 -2.3,10 -22.2,-5 -44.7,-8.6 -67.3,-10.6 -13,-18.6 -27.2,-36.399998 -42.6,-53.099998 3.9,-3.7 7.7,-7.2 11.7,-10.700003 z m -130,189.100001 c 4.6,8.8 9.3,17.5 14.3,26.1 5.1,8.7 10.3,17.4 15.8,25.9 -15.6,-1.7 -31.1,-4.2 -46.4,-7.5 4.4,-14.4 9.9,-29.3 16.3,-44.5 z m 0,-50.6 c -6.3,-14.9 -11.6,-29.5 -16,-43.6 14.4,-3.2 29.7,-5.8 45.6,-7.8 -5.3,8.3 -10.5,16.8 -15.4,25.4 -4.9,8.5 -9.7,17.2 -14.2,26 z m 11.4,25.3 c 6.6,-13.8 13.8,-27.3 21.4,-40.6 7.6,-13.3 15.8,-26.2 24.4,-38.9 15,-1.1 30.3,-1.7 45.9,-1.7 15.6,0 31,0.6 45.9,1.7 8.5,12.6 16.6,25.5 24.3,38.7 7.7,13.2 14.9,26.7 21.7,40.4 -6.7,13.8 -13.9,27.4 -21.6,40.8 -7.6,13.3 -15.7,26.2 -24.2,39 -14.9,1.1 -30.4,1.6 -46.1,1.6 -15.7,0 -30.9,-0.5 -45.6,-1.4 -8.7,-12.7 -16.9,-25.7 -24.6,-39 -7.7,-13.3 -14.8,-26.8 -21.5,-40.6 z m 180.6,51.2 c 5.1,-8.8 9.9,-17.7 14.6,-26.7 6.4,14.5 12,29.2 16.9,44.3 -15.5,3.5 -31.2,6.2 -47,8 5.4,-8.4 10.5,-17 15.5,-25.6 z m 14.4,-76.5 c -4.7,-8.8 -9.5,-17.6 -14.5,-26.2 -4.9,-8.5 -10,-16.9 -15.3,-25.2 16.1,2 31.5,4.7 45.9,8 -4.6,14.8 -10,29.2 -16.1,43.4 z m -103.1,-112.499998 c 10.5,11.399998 20.4,23.399998 29.6,35.799998 -19.8,-0.9 -39.7,-0.9 -59.5,0 9.8,-12.9 19.9,-24.9 29.9,-35.799998 z m -116,-61.3 c 16.8,-9.8 54.1,4.2 93.4,39 2.5,2.2 5,4.6 7.6,7 -15.5,16.7 -29.8,34.499998 -42.9,53.099998 -22.6,2 -45,5.5 -67.2,10.4 -1.3,-5.1 -2.4,-10.3 -3.5,-15.5 -9.4,-48.399998 -3.2,-84.900001 12.6,-93.999998 z m -24.5,263.599998 c -4.2,-1.2 -8.3,-2.5 -12.4,-3.9 -21.3,-6.7 -45.5,-17.3 -63,-31.2 -10.1,-7 -16.9,-17.8 -18.8,-29.9 0,-18.3 31.6,-41.7 77.2,-57.6 5.7,-2 11.5,-3.8 17.3,-5.5 6.8,21.7 15,43 24.5,63.6 -9.6,20.9 -17.9,42.5 -24.8,64.5 z m 116.6,98 c -16.5,15.1 -35.6,27.1 -56.4,35.3 -11.1,5.3 -23.9,5.8 -35.3,1.3 -15.9,-9.2 -22.5,-44.5 -13.5,-92 1.1,-5.6 2.3,-11.2 3.7,-16.7 22.4,4.8 45,8.1 67.9,9.8 13.2,18.7 27.7,36.6 43.2,53.4 -3.2,3.1 -6.4,6.1 -9.6,8.9 z m 24.5,-24.3 c -10.2,-11 -20.4,-23.2 -30.3,-36.3 9.6,0.4 19.5,0.6 29.5,0.6 10.3,0 20.4,-0.2 30.4,-0.7 -9.2,12.7 -19.1,24.8 -29.6,36.4 z m 130.7,30 c -0.9,12.2 -6.9,23.6 -16.5,31.3 -15.9,9.2 -49.8,-2.8 -86.4,-34.2 -4.2,-3.6 -8.4,-7.5 -12.7,-11.5 15.3,-16.9 29.4,-34.8 42.2,-53.6 22.9,-1.9 45.7,-5.4 68.2,-10.5 1,4.1 1.9,8.2 2.7,12.2 4.9,21.6 5.7,44.1 2.5,66.3 z m 18.2,-107.5 c -2.8,0.9 -5.6,1.8 -8.5,2.6 -7,-21.8 -15.6,-43.1 -25.5,-63.8 9.6,-20.4 17.7,-41.4 24.5,-62.9 5.2,1.5 10.2,3.1 15,4.7 46.6,16 79.3,39.8 79.3,58 0,19.6 -34.9,44.9 -84.8,61.4 z m -149.7,-106.6 c 25.3,0 45.8,20.5 45.8,45.8 0,25.3 -20.5,45.8 -45.8,45.8 -25.3,0 -45.8,-20.5 -45.8,-45.8 0,-25.3 20.5,-45.8 45.8,-45.8"
     id="path4414-1"
     style="fill:#0b1728;fill-opacity:1" />
</svg>
