<?xml version="1.0" encoding="UTF-8" standalone="no"?>
<svg
   xmlns:dc="http://purl.org/dc/elements/1.1/"
   xmlns:cc="http://creativecommons.org/ns#"
   xmlns:rdf="http://www.w3.org/1999/02/22-rdf-syntax-ns#"
   xmlns:svg="http://www.w3.org/2000/svg"
   xmlns="http://www.w3.org/2000/svg"
   xmlns:sodipodi="http://sodipodi.sourceforge.net/DTD/sodipodi-0.dtd"
   xmlns:inkscape="http://www.inkscape.org/namespaces/inkscape"
   viewBox="0 0 640 512"
   version="1.1"
   id="svg6718"
   sodipodi:docname="node.svg"
   inkscape:version="0.92.2 (5c3e80d, 2017-08-06)">
  <metadata
     id="metadata6724">
    <rdf:RDF>
      <cc:Work
         rdf:about="">
        <dc:format>image/svg+xml</dc:format>
        <dc:type
           rdf:resource="http://purl.org/dc/dcmitype/StillImage" />
      </cc:Work>
    </rdf:RDF>
  </metadata>
  <defs
     id="defs6722" />
  <sodipodi:namedview
     pagecolor="#ffffff"
     bordercolor="#666666"
     borderopacity="1"
     objecttolerance="10"
     gridtolerance="10"
     guidetolerance="10"
     inkscape:pageopacity="0"
     inkscape:pageshadow="2"
     inkscape:window-width="1366"
     inkscape:window-height="705"
     id="namedview6720"
     showgrid="false"
     inkscape:zoom="0.4609375"
     inkscape:cx="-32.542373"
     inkscape:cy="256"
     inkscape:window-x="-8"
     inkscape:window-y="-8"
     inkscape:window-maximized="1"
     inkscape:current-layer="svg6718" />
  <path
     d="M316.3 452c-2.1 0-4.2-.6-6.1-1.6L291 439c-2.9-1.6-1.5-2.2-.5-2.5 3.8-1.3 4.6-1.6 8.7-4 .4-.2 1-.1 1.4.1l14.8 8.8c.5.3 1.3.3 1.8 0L375 408c.5-.3.9-.9.9-1.6v-66.7c0-.7-.3-1.3-.9-1.6l-57.8-33.3c-.5-.3-1.2-.3-1.8 0l-57.8 33.3c-.6.3-.9 1-.9 1.6v66.7c0 .6.4 1.2.9 1.5l15.8 9.1c8.6 4.3 13.9-.8 13.9-5.8v-65.9c0-.9.7-1.7 1.7-1.7h7.3c.9 0 1.7.7 1.7 1.7v65.9c0 11.5-6.2 18-17.1 18-3.3 0-6 0-13.3-3.6l-15.2-8.7c-3.7-2.2-6.1-6.2-6.1-10.5v-66.7c0-4.3 2.3-8.4 6.1-10.5l57.8-33.4c3.7-2.1 8.5-2.1 12.1 0l57.8 33.4c3.7 2.2 6.1 6.2 6.1 10.5v66.7c0 4.3-2.3 8.4-6.1 10.5l-57.8 33.4c-1.7 1.1-3.8 1.7-6 1.7zm46.7-65.8c0-12.5-8.4-15.8-26.2-18.2-18-2.4-19.8-3.6-19.8-7.8 0-3.5 1.5-8.1 14.8-8.1 11.9 0 16.3 2.6 18.1 10.6.2.8.8 1.3 1.6 1.3h7.5c.5 0 .9-.2 1.2-.5.3-.4.5-.8.4-1.3-1.2-13.8-10.3-20.2-28.8-20.2-16.5 0-26.3 7-26.3 18.6 0 12.7 9.8 16.1 25.6 17.7 18.9 1.9 20.4 4.6 20.4 8.3 0 6.5-5.2 9.2-17.4 9.2-15.3 0-18.7-3.8-19.8-11.4-.1-.8-.8-1.4-1.7-1.4h-7.5c-.9 0-1.7.7-1.7 1.7 0 9.7 5.3 21.3 30.6 21.3 18.5 0 29-7.2 29-19.8zm54.5-50.1c0 6.1-5 11.1-11.1 11.1s-11.1-5-11.1-11.1c0-6.3 5.2-11.1 11.1-11.1 6-.1 11.1 4.8 11.1 11.1zm-1.8 0c0-5.2-4.2-9.3-9.4-9.3-5.1 0-9.3 4.1-9.3 9.3 0 5.2 4.2 9.4 9.3 9.4 5.2-.1 9.4-4.3 9.4-9.4zm-4.5 6.2h-2.6c-.1-.6-.5-3.8-.5-3.9-.2-.7-.4-1.1-1.3-1.1h-2.2v5h-2.4v-12.5h4.3c1.5 0 4.4 0 4.4 3.3 0 2.3-1.5 2.8-2.4 3.1 1.7.1 1.8 1.2 2.1 2.8.1 1 .3 2.7.6 3.3zm-2.8-8.8c0-1.7-1.2-1.7-1.8-1.7h-2v3.5h1.9c1.6 0 1.9-1.1 1.9-1.8zM137.3 191c0-2.7-1.4-5.1-3.7-6.4l-61.3-35.3c-1-.6-2.2-.9-3.4-1h-.6c-1.2 0-2.3.4-3.4 1L3.7 184.6C1.4 185.9 0 188.4 0 191l.1 95c0 1.3.7 2.5 1.8 3.2 1.1.7 2.5.7 3.7 0L42 268.3c2.3-1.4 3.7-3.8 3.7-6.4v-44.4c0-2.6 1.4-5.1 3.7-6.4l15.5-8.9c1.2-.7 2.4-1 3.7-1 1.3 0 2.6.3 3.7 1l15.5 8.9c2.3 1.3 3.7 3.8 3.7 6.4v44.4c0 2.6 1.4 5.1 3.7 6.4l36.4 20.9c1.1.7 2.6.7 3.7 0 1.1-.6 1.8-1.9 1.8-3.2l.2-95zM472.5 87.3v176.4c0 2.6-1.4 5.1-3.7 6.4l-61.3 35.4c-2.3 1.3-5.1 1.3-7.4 0l-61.3-35.4c-2.3-1.3-3.7-3.8-3.7-6.4v-70.8c0-2.6 1.4-5.1 3.7-6.4l61.3-35.4c2.3-1.3 5.1-1.3 7.4 0l15.3 8.8c1.7 1 3.9-.3 3.9-2.2v-94c0-2.8 3-4.6 5.5-3.2l36.5 20.4c2.3 1.2 3.8 3.7 3.8 6.4zm-46 128.9c0-.7-.4-1.3-.9-1.6l-21-12.2c-.6-.3-1.3-.3-1.9 0l-21 12.2c-.6.3-.9.9-.9 1.6v24.3c0 .7.4 1.3.9 1.6l21 12.1c.6.3 1.3.3 1.8 0l21-12.1c.6-.3.9-.9.9-1.6v-24.3zm209.8-.7c2.3-1.3 3.7-3.8 3.7-6.4V192c0-2.6-1.4-5.1-3.7-6.4l-60.9-35.4c-2.3-1.3-5.1-1.3-7.4 0l-61.3 35.4c-2.3 1.3-3.7 3.8-3.7 6.4v70.8c0 2.7 1.4 5.1 3.7 6.4l60.9 34.7c2.2 1.3 5 1.3 7.3 0l36.8-20.5c2.5-1.4 2.5-5 0-6.4L550 241.6c-1.2-.7-1.9-1.9-1.9-3.2v-22.2c0-1.3.7-2.5 1.9-3.2l19.2-11.1c1.1-.7 2.6-.7 3.7 0l19.2 11.1c1.1.7 1.9 1.9 1.9 3.2v17.4c0 2.8 3.1 4.6 5.6 3.2l36.7-21.3zM559 219c-.4.3-.7.7-.7 1.2v13.6c0 .5.3 1 .7 1.2l11.8 6.8c.4.3 1 .3 1.4 0L584 235c.4-.3.7-.7.7-1.2v-13.6c0-.5-.3-1-.7-1.2l-11.8-6.8c-.4-.3-1-.3-1.4 0L559 219zm-254.2 43.5v-70.4c0-2.6-1.6-5.1-3.9-6.4l-61.1-35.2c-2.1-1.2-5-1.4-7.4 0l-61.1 35.2c-2.3 1.3-3.9 3.7-3.9 6.4v70.4c0 2.8 1.9 5.2 4 6.4l61.2 35.2c2.4 1.4 5.2 1.3 7.4 0l61-35.2c1.8-1 3.1-2.7 3.6-4.7.1-.5.2-1.1.2-1.7zm-74.3-124.9l-.8.5h1.1l-.3-.5zm76.2 130.2l-.4-.7v.9l.4-.2z"
     id="path6716"
     style="fill:#0b1728;fill-opacity:1" />
  <path
     inkscape:connector-curvature="0"
     d="m 1162.3356,270.46367 c -5.4,-1.8 -10.8,-3.5 -16.2,-5.1 0.9,-3.7 1.7,-7.4 2.5,-11.1 12.3,-59.59999 4.2,-107.49999 -23.1,-123.29999 -26.3,-15.1 -69.2,0.6 -112.6,38.4 -4.3,3.7 -8.5,7.6 -12.5,11.5 -2.70001,-2.6 -5.50001,-5.2 -8.30001,-7.7 -45.5,-40.4 -91.1,-57.4 -118.4,-41.5 -26.2,15.2 -34,60.3 -23,116.69999 1.1,5.6 2.3,11.1 3.7,16.7 -6.4,1.8 -12.7,3.8 -18.6,5.9 -53.4,18.5 -91.7,47.7 -91.7,77.9 0,31.2 40.8,62.5 96.3,81.5 4.5,1.5 9,3 13.6,4.3 -1.5,6 -2.8,11.9 -4,18 -10.5,55.5 -2.3,99.5 23.9,114.6 27,15.6 72.4,-0.4 116.6,-39.1 3.5,-3.1 7,-6.3 10.50001,-9.7 4.4,4.3 9,8.4 13.6,12.4 42.8,36.8 85.1,51.7 111.2,36.6 27,-15.6 35.8,-62.9 24.4,-120.5 -0.9,-4.4 -1.9,-8.9 -3,-13.5 3.2,-0.9 6.3,-1.9 9.4,-2.9 57.7,-19.1 99.5,-50 99.5,-81.7 0,-30.3 -39.4,-59.7 -93.8,-78.4 z m -135.3,-84.89999 c 37.2,-32.4 71.9,-45.1 87.7,-36 16.9,9.7 23.4,48.9 12.8,100.39999 -0.7,3.4 -1.4,6.7 -2.3,10 -22.2,-5 -44.7,-8.6 -67.3,-10.6 -13,-18.6 -27.2,-36.39999 -42.6,-53.09999 3.9,-3.7 7.7,-7.2 11.7,-10.7 z M 897.03559,374.66367 c 4.6,8.8 9.3,17.5 14.3,26.1 5.1,8.7 10.3,17.4 15.8,25.9 -15.6,-1.7 -31.1,-4.2 -46.4,-7.5 4.4,-14.4 9.9,-29.3 16.3,-44.5 z m 0,-50.6 c -6.3,-14.9 -11.6,-29.5 -16,-43.6 14.4,-3.2 29.7,-5.8 45.6,-7.8 -5.3,8.3 -10.5,16.8 -15.4,25.4 -4.9,8.5 -9.7,17.2 -14.2,26 z m 11.4,25.3 c 6.6,-13.8 13.8,-27.3 21.4,-40.6 7.6,-13.3 15.8,-26.2 24.4,-38.9 15,-1.1 30.3,-1.7 45.90001,-1.7 15.6,0 31,0.6 45.9,1.7 8.5,12.6 16.6,25.5 24.3,38.7 7.7,13.2 14.9,26.7 21.7,40.4 -6.7,13.8 -13.9,27.4 -21.6,40.8 -7.6,13.3 -15.7,26.2 -24.2,39 -14.9,1.1 -30.4,1.6 -46.1,1.6 -15.70001,0 -30.90001,-0.5 -45.60001,-1.4 -8.7,-12.7 -16.9,-25.7 -24.6,-39 -7.7,-13.3 -14.8,-26.8 -21.5,-40.6 z m 180.60001,51.2 c 5.1,-8.8 9.9,-17.7 14.6,-26.7 6.4,14.5 12,29.2 16.9,44.3 -15.5,3.5 -31.2,6.2 -47,8 5.4,-8.4 10.5,-17 15.5,-25.6 z m 14.4,-76.5 c -4.7,-8.8 -9.5,-17.6 -14.5,-26.2 -4.9,-8.5 -10,-16.9 -15.3,-25.2 16.1,2 31.5,4.7 45.9,8 -4.6,14.8 -10,29.2 -16.1,43.4 z m -103.1,-112.49999 c 10.5,11.4 20.4,23.39999 29.6,35.79999 -19.8,-0.9 -39.70001,-0.9 -59.50001,0 9.8,-12.9 19.9,-24.89999 29.90001,-35.79999 z m -116.00001,-61.3 c 16.8,-9.8 54.1,4.2 93.4,39 2.5,2.2 5,4.6 7.6,7 -15.5,16.7 -29.8,34.49999 -42.9,53.09999 -22.6,2 -45,5.5 -67.2,10.4 -1.3,-5.1 -2.4,-10.3 -3.5,-15.5 -9.4,-48.39999 -3.2,-84.89999 12.6,-93.99999 z m -24.5,263.59999 c -4.2,-1.2 -8.3,-2.5 -12.4,-3.9 -21.3,-6.7 -45.5,-17.3 -63,-31.2 -10.1,-7 -16.9,-17.8 -18.8,-29.9 0,-18.3 31.6,-41.7 77.2,-57.6 5.7,-2 11.5,-3.8 17.3,-5.5 6.8,21.7 15,43 24.5,63.6 -9.6,20.9 -17.9,42.5 -24.8,64.5 z m 116.6,98 c -16.5,15.1 -35.6,27.1 -56.4,35.3 -11.1,5.3 -23.9,5.8 -35.3,1.3 -15.9,-9.2 -22.5,-44.5 -13.5,-92 1.1,-5.6 2.3,-11.2 3.7,-16.7 22.4,4.8 45,8.1 67.9,9.8 13.2,18.7 27.7,36.6 43.2,53.4 -3.2,3.1 -6.4,6.1 -9.6,8.9 z m 24.50001,-24.3 c -10.20001,-11 -20.40001,-23.2 -30.30001,-36.3 9.6,0.4 19.5,0.6 29.50001,0.6 10.3,0 20.4,-0.2 30.4,-0.7 -9.2,12.7 -19.1,24.8 -29.6,36.4 z m 130.7,30 c -0.9,12.2 -6.9,23.6 -16.5,31.3 -15.9,9.2 -49.8,-2.8 -86.4,-34.2 -4.2,-3.6 -8.4,-7.5 -12.7,-11.5 15.3,-16.9 29.4,-34.8 42.2,-53.6 22.9,-1.9 45.7,-5.4 68.2,-10.5 1,4.1 1.9,8.2 2.7,12.2 4.9,21.6 5.7,44.1 2.5,66.3 z m 18.2,-107.5 c -2.8,0.9 -5.6,1.8 -8.5,2.6 -7,-21.8 -15.6,-43.1 -25.5,-63.8 9.6,-20.4 17.7,-41.4 24.5,-62.9 5.2,1.5 10.2,3.1 15,4.7 46.6,16 79.3,39.8 79.3,58 0,19.6 -34.9,44.9 -84.8,61.4 z m -149.7,-106.6 c 25.3,0 45.8,20.5 45.8,45.8 0,25.3 -20.5,45.8 -45.8,45.8 -25.30001,0 -45.80001,-20.5 -45.80001,-45.8 0,-25.3 20.5,-45.8 45.80001,-45.8"
     id="path4414"
     style="fill:#c32337;fill-opacity:1" />
  <path
     inkscape:connector-curvature="0"
     d="m -163.22373,157.6501 c -5.4,-1.8 -10.8,-3.5 -16.2,-5.1 0.9,-3.7 1.7,-7.4 2.5,-11.1 12.3,-59.599987 4.2,-107.499987 -23.1,-123.299987 -26.3,-15.1 -69.2,0.6 -112.6,38.4 -4.3,3.7 -8.5,7.6 -12.5,11.5 -2.7,-2.6 -5.5,-5.2 -8.3,-7.7 -45.5,-40.4 -91.1,-57.4 -118.4,-41.5 -26.2,15.2 -34,60.3 -23,116.699987 1.1,5.6 2.3,11.1 3.7,16.7 -6.4,1.8 -12.7,3.8 -18.6,5.9 -53.4,18.5 -91.7,47.7 -91.7,77.9 0,31.2 40.8,62.5 96.3,81.5 4.5,1.5 9,3 13.6,4.3 -1.5,6 -2.8,11.9 -4,18 -10.5,55.5 -2.3,99.5 23.9,114.6 27,15.6 72.4,-0.4 116.6,-39.1 3.5,-3.1 7,-6.3 10.5,-9.7 4.4,4.3 9,8.4 13.6,12.4 42.8,36.8 85.1,51.7 111.2,36.6 27,-15.6 35.8,-62.9 24.4,-120.5 -0.9,-4.4 -1.9,-8.9 -3,-13.5 3.2,-0.9 6.3,-1.9 9.4,-2.9 57.7,-19.1 99.500001,-50 99.500001,-81.7 0,-30.3 -39.400001,-59.7 -93.800001,-78.4 z m -135.3,-84.899987 c 37.2,-32.4 71.9,-45.1 87.7,-36 16.9,9.7 23.4,48.9 12.8,100.399987 -0.7,3.4 -1.4,6.7 -2.3,10 -22.2,-5 -44.7,-8.6 -67.3,-10.6 -13,-18.6 -27.2,-36.39999 -42.6,-53.099987 3.9,-3.7 7.7,-7.2 11.7,-10.7 z m -130,189.099987 c 4.6,8.8 9.3,17.5 14.3,26.1 5.1,8.7 10.3,17.4 15.8,25.9 -15.6,-1.7 -31.1,-4.2 -46.4,-7.5 4.4,-14.4 9.9,-29.3 16.3,-44.5 z m 0,-50.6 c -6.3,-14.9 -11.6,-29.5 -16,-43.6 14.4,-3.2 29.7,-5.8 45.6,-7.8 -5.3,8.3 -10.5,16.8 -15.4,25.4 -4.9,8.5 -9.7,17.2 -14.2,26 z m 11.4,25.3 c 6.6,-13.8 13.8,-27.3 21.4,-40.6 7.6,-13.3 15.8,-26.2 24.4,-38.9 15,-1.1 30.3,-1.7 45.9,-1.7 15.6,0 31,0.6 45.9,1.7 8.5,12.6 16.6,25.5 24.3,38.7 7.7,13.2 14.9,26.7 21.7,40.4 -6.7,13.8 -13.9,27.4 -21.6,40.8 -7.6,13.3 -15.7,26.2 -24.2,39 -14.9,1.1 -30.4,1.6 -46.1,1.6 -15.7,0 -30.9,-0.5 -45.6,-1.4 -8.7,-12.7 -16.9,-25.7 -24.6,-39 -7.7,-13.3 -14.8,-26.8 -21.5,-40.6 z m 180.6,51.2 c 5.1,-8.8 9.9,-17.7 14.6,-26.7 6.4,14.5 12,29.2 16.9,44.3 -15.5,3.5 -31.2,6.2 -47,8 5.4,-8.4 10.5,-17 15.5,-25.6 z m 14.4,-76.5 c -4.7,-8.8 -9.5,-17.6 -14.5,-26.2 -4.9,-8.5 -10,-16.9 -15.3,-25.2 16.1,2 31.5,4.7 45.9,8 -4.6,14.8 -10,29.2 -16.1,43.4 z m -103.1,-112.499987 c 10.5,11.399997 20.4,23.399987 29.6,35.799987 -19.8,-0.9 -39.7,-0.9 -59.5,0 9.8,-12.9 19.9,-24.89999 29.9,-35.799987 z m -116,-61.3 c 16.8,-9.8 54.1,4.2 93.4,39 2.5,2.2 5,4.6 7.6,7 -15.5,16.699997 -29.8,34.499987 -42.9,53.099987 -22.6,2 -45,5.5 -67.2,10.4 -1.3,-5.1 -2.4,-10.3 -3.5,-15.5 -9.4,-48.399987 -3.2,-84.899987 12.6,-93.999987 z m -24.5,263.599987 c -4.2,-1.2 -8.3,-2.5 -12.4,-3.9 -21.3,-6.7 -45.5,-17.3 -63,-31.2 -10.1,-7 -16.9,-17.8 -18.8,-29.9 0,-18.3 31.6,-41.7 77.2,-57.6 5.7,-2 11.5,-3.8 17.3,-5.5 6.8,21.7 15,43 24.5,63.6 -9.6,20.9 -17.9,42.5 -24.8,64.5 z m 116.6,98 c -16.5,15.1 -35.6,27.1 -56.4,35.3 -11.1,5.3 -23.9,5.8 -35.3,1.3 -15.9,-9.2 -22.5,-44.5 -13.5,-92 1.1,-5.6 2.3,-11.2 3.7,-16.7 22.4,4.8 45,8.1 67.9,9.8 13.2,18.7 27.7,36.6 43.2,53.4 -3.2,3.1 -6.4,6.1 -9.6,8.9 z m 24.5,-24.3 c -10.2,-11 -20.4,-23.2 -30.3,-36.3 9.6,0.4 19.5,0.6 29.5,0.6 10.3,0 20.4,-0.2 30.4,-0.7 -9.2,12.7 -19.1,24.8 -29.6,36.4 z m 130.7,30 c -0.9,12.2 -6.9,23.6 -16.5,31.3 -15.9,9.2 -49.8,-2.8 -86.4,-34.2 -4.2,-3.6 -8.4,-7.5 -12.7,-11.5 15.3,-16.9 29.4,-34.8 42.2,-53.6 22.9,-1.9 45.7,-5.4 68.2,-10.5 1,4.1 1.9,8.2 2.7,12.2 4.9,21.6 5.7,44.1 2.5,66.3 z m 18.2,-107.5 c -2.8,0.9 -5.6,1.8 -8.5,2.6 -7,-21.8 -15.6,-43.1 -25.5,-63.8 9.6,-20.4 17.7,-41.4 24.5,-62.9 5.2,1.5 10.2,3.1 15,4.7 46.6,16 79.300001,39.8 79.300001,58 0,19.6 -34.900001,44.9 -84.800001,61.4 z m -149.7,-106.6 c 25.3,0 45.8,20.5 45.8,45.8 0,25.3 -20.5,45.8 -45.8,45.8 -25.3,0 -45.8,-20.5 -45.8,-45.8 0,-25.3 20.5,-45.8 45.8,-45.8"
     id="path4414-9"
     style="fill:#0b1728;fill-opacity:1" />
</svg>
